<svg xmlns="http://www.w3.org/2000/svg" width="24px" height="24px"
     viewBox="0 0 499 417" style="">
<style type="text/css">
	.header--dark .st0{
    fill: #FFFFFF;
    stroke: #FFFFFF;
    stroke-width: 15;
  }
	.st0{
    fill: #5f0c0c;
    stroke: #5f0c0c;
    stroke-width: 15;
  }
</style>

<path class="st0" d="M11.8,171.8C11.8,171.8 34.8,194.8 34.8,194.8C34.8,194.8 77.8,237.76 77.8,237.76C77.8,237.76 87.8,246.81 87.8,246.81C87.8,246.81 162.8,320.79 162.8,320.79C162.8,320.79 172.8,329.84 172.8,329.84C172.8,329.84 206.8,363.79 206.8,363.79C206.8,363.79 216.8,372.84 216.8,372.84C216.8,372.84 249.8,405.8 249.8,405.8C249.8,405.8 277.8,378.8 277.8,378.8C277.8,378.8 295.8,361.79 295.8,361.79C295.8,361.79 327.8,329.84 327.8,329.84C327.8,329.84 337.8,320.79 337.8,320.79C337.8,320.79 370.8,287.84 370.8,287.84C370.8,287.84 380.8,278.79 380.8,278.79C380.8,278.79 413.8,245.81 413.8,245.81C413.8,245.81 423.8,236.76 423.8,236.76C423.8,236.76 459.8,200.81 459.8,200.81C459.8,200.81 469.8,191.76 469.8,191.76C469.8,191.76 488.8,172.8 488.8,172.8C482.42,163.88 465.37,148.7 456.8,140.71C456.8,140.71 427.8,111.81 427.8,111.81C427.8,111.81 414.8,99.8 414.8,99.8C393.64,78.74 363.91,47.19 338.8,32.03C286.3,1.02 215.47,0.99 162.8,32.03C145.12,42.16 130.9,57.1 116.84,71.8C116.84,71.8 104.8,84.71 104.8,84.71C104.8,84.71 77.8,108.97 77.8,108.97C77.8,108.97 30.8,153.76 30.8,153.76C30.8,153.76 11.8,171.8 11.8,171.8zM234.8,262.8C234.8,262.8 260.8,260.63 260.8,260.63C274.73,259.28 287.01,256.26 298.8,248.44C334.88,224.51 353.02,179.61 334.49,138.8C324.87,117.61 304.2,99.14 284.8,86.85C263.3,73.24 231.37,62.84 205.8,62.8C205.8,62.8 191.8,62.8 191.8,62.8C174.29,62.83 157.08,66.51 139.8,68.8C146.11,60.73 169.14,46.91 178.8,41.38C245.15,3.42 333.84,27.12 377.23,88.8C392.6,110.65 400.95,136.3 402.89,162.8C402.89,162.8 403.79,172.8 403.79,172.8C403.79,172.8 402.97,181.8 402.97,181.8C401.76,194.44 400.8,203.45 397.08,215.8C388.26,245.07 369.22,269.52 347.8,290.8C347.8,290.8 332.8,304.8 332.8,304.8C332.8,304.8 313.8,322.8 313.8,322.8C311.81,324.77 307.7,329.42 304.8,329.46C302.49,329.5 300.36,327.25 298.8,325.78C298.8,325.78 286.8,313.8 286.8,313.8C286.8,313.8 249.8,278.8 249.8,278.8C245.25,274.3 237.34,268.12 234.8,262.8zM188.04,108.8C182.55,113.51 172.86,127.35 169.56,133.8C165.16,142.39 161.97,149.16 160.26,158.8C159.26,164.48 159.54,170.09 159.76,175.8C160.85,203.46 175.69,225.61 194.84,244.76C194.84,244.76 205.8,254.8 205.8,254.8C205.8,254.8 234.8,283.76 234.8,283.76C234.8,283.76 249.8,297.8 249.8,297.8C249.8,297.8 280.8,328.38 280.8,328.38C283.59,330.8 292.6,338.19 292.6,341.8C292.6,344.96 285.13,351.47 282.8,353.8C282.8,353.8 250.8,384.8 250.8,384.8C244.43,380.24 231.1,366.1 224.8,359.8C224.8,359.8 186.8,322.8 186.8,322.8C186.8,322.8 169.8,306.79 169.8,306.79C169.8,306.79 149.76,285.8 149.76,285.8C149.76,285.8 132.97,268.8 132.97,268.8C122.24,256.88 110.8,237 105.49,221.8C100.77,208.26 97.37,190.13 97.59,175.8C97.59,175.8 97.59,162.8 97.59,162.8C97.99,146.53 103.59,128.39 110.5,113.8C113.16,108.2 116.9,100.46 121.89,96.7C138,84.56 170.68,76.83 190.8,76.8C190.8,76.8 200.8,76.8 200.8,76.8C231.38,76.85 270.24,91.1 293.8,110.42C312.11,125.43 325.76,146.47 325.8,170.8C325.8,170.8 325.8,176.8 325.8,176.8C325.38,212.61 290.37,246.38 254.8,246.8C228.44,247.1 207.31,238.42 190.12,217.8C181.03,206.88 174.87,192.09 174.8,177.8C174.77,170.46 174.35,163.98 176.29,156.8C176.29,156.8 188.04,125.8 188.04,125.8C190,117.93 188.92,116.09 188.04,108.8zM410.8,117.8C410.8,117.8 450.8,155.84 450.8,155.84C453.16,158.1 464.92,168.7 465.46,170.81C466.49,174.83 455.69,183.91 452.8,186.8C452.8,186.8 409.8,228.8 409.8,228.8C413.27,210.36 418.58,191.68 418.8,172.8C418.91,163.14 417.27,149.18 414.93,139.8C413.73,135 409.97,121.98 410.8,117.8zM90.8,118.8C84.1,141.92 82.76,153.91 82.8,177.8C82.81,186.8 85.12,201.84 87.01,210.8C87.01,210.8 90.8,228.8 90.8,228.8C90.8,228.8 50.8,189.8 50.8,189.8C48.03,187.03 36.93,176.59 35.97,173.8C34.42,169.33 43.77,161.74 46.8,158.84C46.8,158.84 74.8,131.8 74.8,131.8C79.51,127.09 84.28,120.72 90.8,118.8z"/>
</svg>