<?xml version="1.0" standalone="no"?>
<!DOCTYPE svg PUBLIC "-//W3C//DTD SVG 20010904//EN"
 "http://www.w3.org/TR/2001/REC-SVG-20010904/DTD/svg10.dtd">
<svg version="1.0" xmlns="http://www.w3.org/2000/svg"
 width="998.000000pt" height="998.000000pt" viewBox="0 0 998.000000 998.000000"
 preserveAspectRatio="xMidYMid meet">
<metadata>
Created by potrace 1.11, written by Peter Selinger 2001-2013
</metadata>
<g transform="translate(0.000000,998.000000) scale(0.100000,-0.100000)"
fill="#000000" stroke="none">
<path d="M4907 9134 c-1 -1 -49 -4 -107 -8 -150 -9 -276 -21 -335 -31 -16 -3
-41 -8 -55 -10 -14 -3 -45 -8 -70 -11 -25 -3 -48 -8 -51 -10 -3 -2 -19 -6 -35
-8 -16 -3 -40 -8 -54 -12 -14 -3 -34 -7 -45 -9 -11 -2 -20 -4 -20 -5 0 -2 -34
-10 -60 -14 -11 -2 -20 -4 -20 -5 0 -2 -7 -4 -15 -6 -68 -14 -189 -54 -380
-124 -101 -36 -431 -196 -484 -234 -6 -4 -72 -47 -146 -96 -132 -88 -298 -221
-409 -328 -135 -131 -221 -217 -339 -342 -194 -204 -391 -401 -455 -456 -33
-28 -76 -66 -96 -85 -21 -19 -73 -66 -116 -105 -133 -119 -155 -138 -214 -195
-32 -30 -103 -98 -158 -150 -55 -52 -178 -170 -274 -262 -96 -91 -199 -189
-229 -218 -57 -53 -313 -297 -405 -385 -29 -27 -109 -104 -179 -169 -69 -66
-126 -124 -126 -130 0 -11 1435 -1443 1560 -1556 85 -77 141 -133 1010 -990
278 -274 523 -516 546 -537 210 -195 333 -314 604 -584 174 -173 342 -338 375
-367 33 -30 241 -234 462 -454 429 -427 410 -412 454 -361 9 10 112 110 229
223 117 113 253 243 301 290 48 47 132 126 185 175 53 50 279 270 501 490 223
220 432 425 466 455 34 30 230 222 437 426 206 204 402 396 435 425 33 30 223
215 421 412 199 197 392 386 430 420 38 34 247 239 464 454 217 216 396 393
397 393 13 0 663 640 663 652 0 9 -112 155 -160 208 -60 67 -206 213 -329 329
-68 64 -144 136 -170 159 -25 24 -192 188 -371 365 -179 177 -357 350 -395
385 -39 35 -232 224 -430 420 -392 388 -567 554 -699 665 -12 9 -30 26 -41 36
-18 16 -168 136 -270 216 -38 30 -153 111 -183 130 -9 6 -35 22 -57 36 -49 32
-250 136 -325 168 -30 13 -73 32 -95 42 -62 28 -252 98 -309 114 -28 8 -85 24
-126 35 -41 12 -115 30 -165 41 -49 11 -99 22 -110 25 -11 2 -34 6 -52 8 -18
3 -41 7 -52 11 -11 3 -37 8 -58 10 -21 2 -63 6 -93 10 -30 3 -71 8 -90 10 -97
12 -474 26 -483 19z m338 -599 c78 -7 115 -12 163 -19 18 -3 52 -8 75 -11 23
-4 44 -8 47 -10 3 -2 23 -6 44 -9 22 -4 90 -20 150 -36 61 -16 122 -32 136
-35 14 -4 34 -10 45 -15 11 -5 48 -18 82 -29 66 -22 222 -85 263 -106 14 -7
67 -34 118 -60 51 -25 127 -68 170 -94 42 -26 88 -54 101 -62 25 -14 40 -25
64 -44 7 -5 35 -26 62 -44 28 -19 52 -37 55 -41 3 -3 23 -18 45 -35 22 -16 49
-39 61 -50 11 -11 36 -33 55 -48 79 -65 275 -268 318 -331 9 -11 26 -32 39
-46 59 -64 281 -421 274 -442 -1 -5 2 -8 8 -8 5 0 10 -4 10 -10 0 -5 15 -42
34 -82 45 -97 113 -279 131 -354 3 -10 14 -53 25 -94 11 -41 22 -84 25 -95 2
-11 6 -30 9 -41 6 -29 20 -115 31 -189 3 -16 7 -52 10 -80 34 -316 34 -295 10
-525 -3 -25 -8 -72 -11 -105 -4 -33 -8 -71 -9 -85 -2 -20 -15 -106 -20 -130
-1 -3 -4 -18 -8 -35 -4 -16 -8 -41 -11 -55 -2 -14 -12 -54 -21 -90 -9 -36 -19
-72 -20 -80 -2 -8 -4 -16 -5 -17 -2 -2 -3 -6 -4 -10 -16 -70 -108 -296 -172
-420 -55 -107 -214 -369 -233 -383 -3 -3 -15 -18 -24 -33 -10 -16 -25 -36 -32
-45 -8 -9 -46 -59 -86 -110 -39 -50 -76 -92 -80 -92 -5 0 -9 -4 -9 -9 0 -23
-241 -276 -434 -456 -59 -55 -131 -122 -160 -150 -29 -27 -120 -113 -201 -190
-81 -77 -175 -166 -208 -198 -58 -55 -61 -56 -80 -40 -11 10 -83 81 -161 158
-118 117 -312 303 -486 465 -20 19 -99 94 -176 166 -76 73 -163 155 -193 183
-42 39 -50 51 -35 52 59 2 314 28 354 35 14 3 59 11 100 19 87 16 227 56 285
81 22 10 49 19 60 21 11 2 22 8 23 13 2 6 12 10 23 10 10 0 19 3 19 8 0 4 25
18 55 32 30 14 55 28 55 32 0 5 6 8 13 8 6 0 36 18 65 40 29 22 55 40 58 40 3
0 11 6 18 13 7 6 25 21 40 32 51 37 88 69 180 160 111 110 147 150 214 240 28
39 55 75 59 80 35 44 197 337 193 347 -1 2 4 17 10 33 122 306 161 625 116
950 -2 17 -5 30 -6 30 -1 0 -3 15 -6 34 -2 19 -9 51 -14 70 -5 20 -10 41 -11
46 -1 6 -5 20 -10 33 -5 12 -11 33 -13 45 -17 91 -128 324 -217 456 -35 52
-68 101 -74 110 -5 9 -17 23 -25 31 -9 8 -31 35 -50 60 -38 50 -141 159 -209
224 -24 22 -60 57 -80 76 -30 29 -80 71 -206 173 -45 36 -176 127 -184 127 -5
0 -11 4 -13 8 -8 21 -346 212 -374 212 -8 0 -14 4 -14 9 0 5 -8 11 -17 14 -10
3 -79 31 -153 62 -74 31 -139 58 -145 59 -12 4 -26 8 -90 30 -27 10 -57 19
-65 21 -8 2 -16 4 -17 5 -2 2 -6 3 -10 4 -5 2 -28 8 -53 15 -25 7 -54 15 -65
18 -30 6 -38 9 -60 16 -11 3 -31 8 -45 11 -14 2 -47 10 -75 16 -27 7 -61 13
-75 15 -14 1 -53 8 -87 14 -34 6 -65 11 -70 10 -4 -1 -10 0 -13 1 -70 27 -713
31 -905 6 -121 -16 -157 -18 -151 -7 4 6 13 11 21 11 7 0 15 4 17 8 6 15 259
161 393 228 111 54 283 126 335 139 8 2 53 15 100 28 89 26 184 49 210 52 8 1
29 4 45 8 17 4 48 9 70 12 23 3 51 7 63 10 12 2 61 7 110 10 48 4 88 8 89 9 6
5 362 -2 428 -9z m-1070 -1069 c44 -4 94 -9 110 -11 17 -3 48 -7 70 -10 62 -8
98 -15 235 -47 25 -6 76 -19 114 -30 38 -11 76 -21 85 -23 55 -13 301 -107
406 -156 39 -18 72 -33 75 -34 14 -3 139 -71 196 -105 35 -22 69 -40 74 -40 6
0 10 -4 10 -8 0 -5 12 -14 26 -21 15 -6 39 -21 53 -32 14 -11 50 -38 79 -59
111 -80 269 -232 353 -340 24 -30 46 -57 49 -60 3 -3 24 -34 47 -70 110 -177
173 -344 199 -530 8 -56 9 -320 1 -375 -11 -77 -17 -107 -29 -145 -6 -19 -11
-37 -11 -40 1 -7 -33 -92 -58 -146 -10 -24 -19 -48 -19 -53 0 -6 -3 -11 -8
-11 -4 0 -13 -13 -20 -29 -12 -27 -70 -120 -82 -131 -3 -3 -25 -31 -49 -62
-67 -89 -223 -231 -330 -302 -152 -101 -341 -181 -474 -201 -26 -4 -49 -10
-51 -14 -7 -10 -411 -1 -411 10 0 1 -9 3 -21 4 -82 9 -205 43 -319 88 -101 39
-181 84 -295 164 -106 75 -330 314 -330 353 0 5 -4 10 -8 10 -5 0 -16 15 -25
33 -10 17 -28 51 -42 75 -30 54 -82 188 -90 232 -3 18 -8 37 -11 42 -3 5 -7
23 -10 41 -2 18 -7 45 -10 62 -4 16 -6 108 -6 205 1 154 5 204 25 285 5 20 44
123 68 180 7 17 13 32 14 35 6 24 39 117 45 125 5 8 42 99 46 115 0 3 4 14 8
25 46 120 46 121 72 240 9 40 3 191 -9 250 -4 17 -9 50 -12 75 -2 25 -7 54 -9
66 -2 11 -7 45 -10 75 -7 61 -16 112 -20 117 -2 1 -35 -28 -74 -65 -220 -213
-199 -191 -277 -288 -21 -28 -42 -52 -45 -55 -20 -19 -150 -218 -150 -230 0
-5 -4 -10 -9 -10 -13 0 -147 -276 -184 -380 -65 -181 -81 -274 -81 -475 0
-184 8 -303 29 -405 3 -14 8 -41 12 -60 4 -19 8 -37 8 -40 1 -3 9 -32 20 -65
10 -33 19 -64 21 -70 19 -79 173 -403 197 -413 4 -2 7 -8 7 -14 0 -5 11 -24
25 -42 14 -18 25 -37 25 -41 0 -5 7 -15 16 -24 8 -9 37 -46 63 -83 26 -36 54
-73 62 -81 8 -8 32 -37 54 -64 80 -97 223 -243 338 -346 37 -33 217 -210 400
-391 183 -182 389 -383 456 -446 68 -63 225 -215 350 -338 269 -266 410 -403
471 -457 95 -86 98 -69 -27 -192 -252 -247 -554 -538 -562 -541 -5 -2 -143
131 -308 295 -321 319 -747 735 -921 898 -123 115 -455 448 -650 651 -74 77
-193 200 -266 274 -73 74 -167 182 -210 240 -42 58 -80 110 -85 115 -19 25
-152 255 -178 310 -15 33 -30 62 -34 65 -3 3 -16 30 -28 60 -13 30 -31 71 -39
90 -9 19 -17 38 -18 43 -1 4 -3 9 -4 12 -1 3 -3 8 -5 13 -1 4 -5 16 -9 27 -26
69 -31 81 -33 90 -4 19 -12 51 -33 130 -12 44 -23 89 -25 100 -2 11 -8 45 -14
75 -13 62 -16 83 -35 225 -12 92 -14 614 -3 670 2 11 7 43 12 70 4 28 9 59 12
70 2 11 6 31 8 45 2 14 18 72 35 130 17 58 32 112 35 120 7 28 63 178 81 217
9 21 34 75 56 120 21 46 38 85 38 88 -1 13 103 157 132 184 43 40 211 131 323
174 134 52 330 113 349 108 4 -1 14 4 22 10 8 6 14 9 14 6 0 -3 15 -1 33 4 17
5 43 12 57 14 14 2 34 6 45 8 19 4 54 10 124 22 44 7 106 14 201 21 41 3 76 6
77 7 4 5 337 -1 408 -7z m-2620 -1123 c-17 -94 -33 -237 -40 -363 -7 -116 -7
-472 0 -540 12 -123 24 -217 30 -250 3 -14 7 -40 10 -57 3 -18 7 -46 10 -63 3
-17 1 -30 -5 -30 -5 0 -10 7 -10 15 0 8 -4 15 -9 15 -4 0 -59 50 -122 111
-158 153 -478 470 -512 506 l-28 30 69 69 c38 38 158 155 267 259 109 105 229
220 267 258 39 37 72 67 74 67 3 0 2 -12 -1 -27z m7030 -98 c35 -33 122 -116
195 -185 74 -69 184 -175 247 -235 l113 -110 -236 -230 c-130 -127 -286 -278
-346 -337 -60 -60 -111 -108 -113 -108 -1 0 3 28 10 63 8 34 16 80 19 102 4
23 9 52 11 65 5 23 11 68 21 150 23 192 22 429 -1 625 -17 138 -37 259 -52
310 -6 21 8 10 132 -110z"/>
</g>
</svg>
